<svg xmlns="http://www.w3.org/2000/svg" viewBox="0 0 400 400"><defs><linearGradient id="a" x1="300.02" y1="26.77" x2="99.98" y2="373.23" gradientUnits="userSpaceOnUse"><stop offset="0" stop-color="#efe241"/><stop offset=".01" stop-color="#f0e549"/><stop offset=".08" stop-color="#f5f268"/><stop offset=".12" stop-color="#f7f774"/><stop offset=".17" stop-color="#f6f56e"/><stop offset=".23" stop-color="#f3ee5d"/><stop offset=".3" stop-color="#efe242"/><stop offset=".31" stop-color="#efe241"/><stop offset=".49" stop-color="#dcc435"/><stop offset=".61" stop-color="#d3b42f"/><stop offset=".77" stop-color="#bfa124"/><stop offset="1" stop-color="#9b8112"/></linearGradient><linearGradient id="b" x1="67.48" y1="206.9" x2="318.99" y2="206.9" gradientUnits="userSpaceOnUse"><stop offset=".39" stop-color="#d3b42f"/><stop offset=".51" stop-color="#dcc435"/><stop offset=".69" stop-color="#efe241"/></linearGradient></defs><rect width="400" height="400" rx="200" ry="200" fill="url(#a)"/><path d="M309.3 102.49a17.15 17.15 0 0 0-24.08-2.81c-70.51 55.76-111.42 123.1-131.07 162.39-23.66-38.58-45-56-50.48-60.09A17.66 17.66 0 1 0 81 228.86s21.34 15.91 42 48.14a332.58 332.58 0 0 1 17.34 31.26 17.14 17.14 0 0 0 15.4 9.61h.94a17.16 17.16 0 0 0 15.2-11.32c.37-1 38.1-103.6 134.59-179.9a17.16 17.16 0 0 0 2.83-24.16z" fill="#fff"/><path d="M295.84 96a17.15 17.15 0 0 1 10.65 30.6C210 202.88 172.27 305.45 171.9 306.48a17.16 17.16 0 0 1-15.2 11.32h-.94a17.14 17.14 0 0 1-15.4-9.61A332.58 332.58 0 0 0 123 277c-20.66-32.23-42-48.14-42-48.14A17.66 17.66 0 1 1 103.67 202c5.48 4.1 26.82 21.51 50.48 60.09C173.8 222.8 214.71 155.46 285.22 99.7a17.05 17.05 0 0 1 10.62-3.7m0-6a23.31 23.31 0 0 0-14.35 5 477.36 477.36 0 0 0-85.68 88.48 511.13 511.13 0 0 0-42.2 66.52c-21.33-32.43-40-48-46-52.59a23.66 23.66 0 1 0-30.2 36.29c1 .74 21.18 16.33 40.55 46.48a327.45 327.45 0 0 1 17 30.68 23.3 23.3 0 0 0 20.79 13h1.27a23.12 23.12 0 0 0 20.52-15.28c.37-1 37.87-102.27 132.66-177.23A23.14 23.14 0 0 0 295.84 90z" fill="url(#b)"/></svg>