<svg xmlns="http://www.w3.org/2000/svg" viewBox="0 0 400 400"><defs><linearGradient id="a" x1="300.02" y1="26.77" x2="99.98" y2="373.23" gradientUnits="userSpaceOnUse"><stop offset="0" stop-color="#9f8af9"/><stop offset=".65" stop-color="#784ef9"/><stop offset="1" stop-color="#3f3882"/></linearGradient></defs><rect width="400" height="400" rx="200" ry="200" fill="url(#a)"/><path d="M322 92.8a17.92 17.92 0 0 0-25.16-2.94c-73.69 58.27-116.43 128.64-137 169.7-24.72-40.32-47-58.51-52.75-62.79a18.46 18.46 0 1 0-23.74 28.08s22.36 16.63 44 50.28a345.68 345.68 0 0 1 18.12 32.66 17.92 17.92 0 0 0 16.1 10h1A17.91 17.91 0 0 0 178.45 306c.39-1.08 39.82-108.26 140.64-188A17.92 17.92 0 0 0 322 92.8z" fill="#fff"/></svg>