<svg xmlns="http://www.w3.org/2000/svg" viewBox="0 0 400 400"><defs><linearGradient id="a" x1="300.02" y1="26.77" x2="99.98" y2="373.23" gradientUnits="userSpaceOnUse"><stop offset="0" stop-color="#9f8af9"/><stop offset=".65" stop-color="#784ef9"/><stop offset="1" stop-color="#3f3882"/></linearGradient></defs><rect width="400" height="400" rx="200" ry="200" fill="url(#a)"/><path d="M342.19 115.6c0-5-17.78-9.17-41.33-10.09-1-23.3-5.1-40.82-10.07-40.82s-9.11 17.53-10.07 40.84a191.51 191.51 0 0 0-20.7 1.9c-15.41-11.63-24.94-14.06-30.1-14.14 3.75-25.59-4.92-45.79-4.77-47.69a9.16 9.16 0 0 1-.52 1v-1s-15.95 23.21-21.86 42.47c-2.14.14-4.29.39-6.44.71l-17.9-26a4.89 4.89 0 0 0-8.56 1l-4.19 10.73c-10.12-15-24.44-24.24-25-25.6.32 2.17 2.91 36 10.25 56.51a249.29 249.29 0 0 0-40.19 27.86l-2.89 2.53-.17 3.84-.69 16v.39c0 1.24 0 2.41-.06 3.55l-2.08-.1c-1-23.3-5.1-40.82-10.07-40.82s-9.11 17.53-10.07 40.84c-23.31 1-40.84 5.1-40.84 10.07s17.52 9.11 40.82 10.07c.64 16.45 2.87 30.07 5.86 36.8-3.9 10.7-7 19.45-8.52 23.63a37.17 37.17 0 0 0-13.18 23.79c-1.45 9.66 0 17.21 4.4 23.78 4.27 6.28 11.38 11.48 22.4 16.38l1.3.58a69.64 69.64 0 0 0 16.82 3.39v-.12c10.49 1.26 22.81.46 30.59-7.68 10.23-10.7 18.67-34.46 26.56-37.33 6-2.18 19.44-8.09 25.57-10.8-3.88 4.53-6.92 20-7.72 39.48-23.31 1-40.84 5.1-40.84 10.07s17.52 9.11 40.82 10.07c.92 23.55 5.09 41.33 10.09 41.33 4.13 0 7.68-12.1 9.32-29.56a208.94 208.94 0 0 0 30.95-16.64c-.08 4.45 0 7.61.05 8.73a12.12 12.12 0 0 0 .12 1.24 9 9 0 0 0 8.87 7.52h.75a9 9 0 0 0 8.26-8.66c.32-1.33 3.85-13.21 33-40.7a89.16 89.16 0 0 0 26.54-48 99 99 0 0 0-.16-37.81 9 9 0 0 0 5.65-12.89c-4.85-9.22-15.75-22.64-22.92-31.06.81-5.74 1.39-12.32 1.67-19.46 23.48-.96 41.25-5.13 41.25-10.13zM157.83 108zm-45.31 75.17s3.48-9 3.48-27.12l.7-16a196.5 196.5 0 0 1 29.3-22.2c1.52-.93 10-6 16.37-7.85l-.19-.28.17.06 7.23-18.51L169 110l-10.51 7.14c-3.94 2-27.3 17.9-60.28 121.42a38.26 38.26 0 0 0-6.11 0c4.1-11.31 12.44-34.42 20.42-55.38zM85 172.68a153.07 153.07 0 0 1-26.67-3.08A152.45 152.45 0 0 1 85 166.53l6.44-.27.26-6.44a153.22 153.22 0 0 1 3.08-26.69 153.07 153.07 0 0 1 3.08 26.67l.26 6.45 6.46.26c.66 0 1.3.06 2 .09-.22 2.31-.48 4.32-.76 6l-1.17.06-6.47.25-.25 6.47a171.35 171.35 0 0 1-2.35 23.45c-.33.89-.65 1.78-1 2.66a159.17 159.17 0 0 1-2.88-26.09l-.26-6.46zm31.77 114.68a18.77 18.77 0 0 0-8.19 6.83 1.61 1.61 0 0 1-3-.8.28.28 0 0 1 0-.09c.92-6.47 6.19-11.13 7.63-12.29a3.75 3.75 0 1 1 3.58 6.35zM113.22 275c-20.17 3.48-13.91 20.86-13.91 20.86-18.77-8.34-23.64-16.68-21.55-30.59a28.3 28.3 0 0 1 10.58-18.67c2.69-1.08 8.64-2.16 20.35.84v-.1c7.66 1.9 12.35 4.95 23.61 24.92-3.17.26-8.9.95-19.08 2.74zm95.39 29.74l-6.47.25-.25 6.47a154.33 154.33 0 0 1-3.1 27.15 153.73 153.73 0 0 1-3.09-27.17l-.26-6.46-6.45-.26a153.07 153.07 0 0 1-26.67-3.08 152.45 152.45 0 0 1 26.68-3.11l6.44-.27.26-6.44a153.22 153.22 0 0 1 3.08-26.69 153.07 153.07 0 0 1 3.08 26.67l.26 6.45 6.46.26a153.73 153.73 0 0 1 27.17 3.09 154.46 154.46 0 0 1-27.14 3.1zM230 172.37c-7.25 17.91-30.23 36.57-30.23 36.57s15.83-33.36 5.93-48.7c-6.89-10.68-15.51-16.59-23.27-16.59-7.17 0-13.62 5-17.28 16-5.9 17.69 7 26.42 21.52 26.42a38 38 0 0 0 7.9-.84 10.64 10.64 0 0 1 2.23-.28c9.15 0-7.79 19-7.79 19s-25 23.64-37.55 40.33c-7.75 10.33-11.77 18.53-13.7 23.28-11.41-20-17.34-24.64-27.45-27.12-1.92-.47-3.61-.85-5-1.14 33-103.11 56.22-115.91 56.36-116l.29-.13 13.93-9.47L177 78l32.38 46.94h.06a50.45 50.45 0 0 0 17 15.19c11.86 6.2 15.09 3.73 3.56 32.24zm-49-19.25a8.58 8.58 0 0 1 1.35-.12s7.68-.86 12.8 9.26a5.44 5.44 0 0 1-.29 5.39c-2.11 3.26-6.37 8.35-12.49 8.35-5.52 0-10-5.14-10-11.49a12.78 12.78 0 0 1 .92-4.8 6.5 6.5 0 1 0 7.72-6.59zm133.17 27.28a6.63 6.63 0 0 1-.71 0 21.64 21.64 0 0 1-9.22-2.47c10.24 30.27 6 65.54-20.32 90.4-35.34 33.34-35.83 45.89-35.81 46.87-.07-1.75-1.43-39.71 11.47-60.08.83-1.31 1.67-2.68 2.49-4.11a24.34 24.34 0 0 1-9.5 2.11 13.16 13.16 0 0 1-5.85-1.13s27.81-17.39 16-66.75-37.82-71.13-37.82-71.13l4.18-11.82a3.15 3.15 0 0 1 .58 0c3.1 0 18.64 2 52.6 37.63l3.47 3.48s21.48 23.79 28.44 37zm-20-61.45l-.25 6.47c-.19 4.7-.49 8.9-.87 12.63-.32-.37-.54-.61-.62-.69s-.2-.23-.31-.34l-3.4-3.4-.57-.58c-.17-2.39-.32-4.93-.42-7.64l-.26-6.46-6.45-.26c-2.88-.12-5.55-.28-8.06-.48-1.84-1.67-3.63-3.24-5.35-4.7 3.92-.42 8.37-.77 13.43-1l6.44-.27.26-6.44a153.22 153.22 0 0 1 3.08-26.69 153.07 153.07 0 0 1 3.08 26.67l.26 6.45 6.46.26a153.73 153.73 0 0 1 27.17 3.09 154.46 154.46 0 0 1-27.15 3.1z" fill="#fff"/></svg>