<svg xmlns="http://www.w3.org/2000/svg" xmlns:xlink="http://www.w3.org/1999/xlink" viewBox="0 0 400 400"><defs><linearGradient id="linear-gradient" x1="300.02" y1="26.77" x2="99.98" y2="373.23" gradientUnits="userSpaceOnUse"><stop offset="0" stop-color="#f0d03f"/><stop offset="0.09" stop-color="#f2d64a"/><stop offset="0.25" stop-color="#f6e566"/><stop offset="0.31" stop-color="#f8ec72"/><stop offset="0.39" stop-color="#f7e86b"/><stop offset="0.5" stop-color="#f4dd56"/><stop offset="0.61" stop-color="#f0d03f"/><stop offset="0.74" stop-color="#e6bc39"/><stop offset="0.92" stop-color="#d6992e"/></linearGradient></defs><title>Spotless Gold</title><g id="Background"><rect width="400" height="400" rx="200" ry="200" fill="url(#linear-gradient)"/></g><g id="Icon"><g id="S"><path d="M309.3,102.49a17.15,17.15,0,0,0-24.08-2.81c-70.51,55.76-111.42,123.1-131.07,162.39-23.66-38.58-45-56-50.48-60.09A17.66,17.66,0,1,0,81,228.86S102.34,244.77,123,277a332.58,332.58,0,0,1,17.34,31.26,17.14,17.14,0,0,0,15.4,9.61c.31,0,.63,0,.94,0a17.16,17.16,0,0,0,15.2-11.32c.37-1,38.1-103.6,134.59-179.9A17.16,17.16,0,0,0,309.3,102.49Z" fill="#fff"/></g></g></svg>