<svg xmlns="http://www.w3.org/2000/svg" viewBox="0 0 400 400"><defs><linearGradient id="a" x1="300.02" y1="26.77" x2="99.98" y2="373.23" gradientUnits="userSpaceOnUse"><stop offset="0" stop-color="#5ae5de"/><stop offset=".56" stop-color="#2abcb8"/><stop offset=".84" stop-color="#108787"/><stop offset="1" stop-color="#14605a"/></linearGradient></defs><rect width="400" height="400" rx="200" ry="200" fill="url(#a)"/><g data-name="TFO teal" fill="#fff"><path d="M205.12 159.41V44.48a9.63 9.63 0 0 0-14.44-8.34l-57.19 33A18.22 18.22 0 0 0 124.37 85v121zM285.59 217.51l.55-.32-1.28-.73a9.63 9.63 0 0 0-6.15-3.56l-73.32-42.33-73.2 42.27a1.81 1.81 0 0 0-.23 0l-6.44 3.72-.15.18-.73.42.32.19a9.69 9.69 0 0 0-1.45 5.09v85a9.68 9.68 0 1 0 19.36 0v-61.25l52.07 30.06v73.07a9.68 9.68 0 0 0 19.36 0v-72.18l53.3-30.77v61.07a9.68 9.68 0 1 0 19.36 0v-85a9.59 9.59 0 0 0-1.37-4.93z"/></g></svg>