<svg xmlns="http://www.w3.org/2000/svg" xmlns:xlink="http://www.w3.org/1999/xlink" viewBox="0 0 400 400"><defs><linearGradient id="linear-gradient" x1="300.02" y1="26.77" x2="99.98" y2="373.23" gradientUnits="userSpaceOnUse"><stop offset="0" stop-color="#9f8af9"/><stop offset="0.65" stop-color="#784ef9"/><stop offset="1" stop-color="#3f3882"/></linearGradient></defs><title>1-2</title><g id="Background"><rect width="400" height="400" rx="200" ry="200" fill="url(#linear-gradient)"/></g><g id="TEMP_icons" data-name="TEMP icons"><path d="M159.18,272.92h9c5.51,0,8.37-2.86,8.37-8.58v-87c0-5.51-2.86-8.58-8.37-8.58h-9c-5.52,0-8.38,3.07-8.38,8.58v87C150.8,270.06,153.66,272.92,159.18,272.92Z" fill="#fff"/><path d="M159.18,151h9c5.51,0,8.58-2.87,8.58-8.38v-6.13c0-5.52-3.07-8.58-8.58-8.58h-9c-5.52,0-8.38,3.06-8.38,8.58v6.13C150.8,148.08,153.66,151,159.18,151Z" fill="#fff"/><path d="M141.8,142.57v-6.13a19.38,19.38,0,0,1,1.87-8.58H64.38c-5.72,0-8.58,3.06-8.58,8.58v5.72c0,5.52,2.86,8.38,8.58,8.38h39v113.8c0,5.72,2.86,8.58,8.38,8.58H121q8.58,0,8.58-8.58V150.54h13.82A19.67,19.67,0,0,1,141.8,142.57Z" fill="#fff"/><path d="M199.63,136c.62-5.31,3.48-8.17,8.79-8.17h12.87c4.9,0,8,2.25,9.6,6.94l25.95,64.77c3.27,8.58,7.36,21.25,7.36,21.25h.41s3.88-12.67,7.15-21.25L297.7,134.8c1.64-4.69,4.7-6.94,9.81-6.94h12.67c5.31,0,8.38,2.86,8.78,8.17l10.42,128.11c.41,5.51-2.45,8.78-8.17,8.78H322c-5.31,0-8.38-2.86-8.79-8.17l-5.51-72.94c-.62-9.6-.21-22.48-.21-22.48h-.41s-4.49,14.1-7.76,22.48l-21,49.44c-1.63,4.5-4.7,6.75-9.6,6.75h-8.58c-5.11,0-8.17-2.25-9.81-6.75l-20.84-49.44c-3.27-8.38-8-22.68-8-22.68h-.4s.4,13.08-.21,22.68l-5.51,72.94c-.41,5.31-3.27,8.17-8.79,8.17h-9.19c-5.72,0-8.59-3.27-8.18-8.78Z" fill="#fff"/></g></svg>