<svg xmlns="http://www.w3.org/2000/svg" viewBox="0 0 400 400"><defs><linearGradient id="a" x1="300.02" y1="26.77" x2="99.98" y2="373.23" gradientUnits="userSpaceOnUse"><stop offset="0" stop-color="#9f8af9"/><stop offset=".65" stop-color="#784ef9"/><stop offset="1" stop-color="#3f3882"/></linearGradient></defs><rect width="400" height="400" rx="200" ry="200" fill="url(#a)"/><g fill="#fff"><path d="M210.59 76.3a12.56 12.56 0 1 1-12.1 9.26 12.53 12.53 0 0 1 12.1-9.26m0-9.18a21.74 21.74 0 1 0 5.74.77 21.75 21.75 0 0 0-5.74-.77zM352.21 250.75l-49.13-77-7.2-11.28a.38.38 0 0 1 0-.1l-24-37.51a11.4 11.4 0 0 0-.69-.94c-.08-.1-.17-.18-.26-.28a5.24 5.24 0 0 0-.51-.54 4.15 4.15 0 0 0-.32-.27c-.17-.15-.34-.3-.52-.43s-.24-.15-.36-.23-.35-.24-.53-.34l-.4-.19c-.18-.09-.36-.18-.54-.25s-.29-.1-.43-.15a5 5 0 0 0-.55-.17c-.15 0-.3-.06-.46-.09l-.53-.11h-1.97a4.68 4.68 0 0 0-.54.1 3.69 3.69 0 0 0-.46.08 4.68 4.68 0 0 0-.53.17l-.43.13c-.19.07-.36.16-.54.24l-.4.19a5.22 5.22 0 0 0-.54.33 2.56 2.56 0 0 0-.35.22c-.19.13-.36.28-.54.42l-.3.25c-.19.17-.37.37-.55.56l-.23.24a8.17 8.17 0 0 0-.69.92l-11.08 16.62-36.93 55.41c13.6 2.74 27.07 5.81 40.62 9.56 3.8 1.07 7.61 2.2 11.44 3.45s7.67 2.62 11.62 4.33a58.53 58.53 0 0 1 6.11 3 32.57 32.57 0 0 1 3.38 2.23 22.93 22.93 0 0 1 1.91 1.63 17.19 17.19 0 0 1 2.18 2.5 14.51 14.51 0 0 1 2.28 4.89 14.23 14.23 0 0 1 .42 3.94 14 14 0 0 1-4.12 9.31 17 17 0 0 1-2.85 2.31 27 27 0 0 1-4.25 2.21c-1.27.52-2.44.93-3.57 1.3a104.25 104.25 0 0 1-12.57 2.95c-4 .73-7.93 1.33-11.82 1.89-7.78 1.12-15.43 2.09-23 3.13s-15.06 2.14-22.41 3.44-14.58 2.81-21.46 4.7a88.89 88.89 0 0 0-18.68 7.08 26.41 26.41 0 0 0-6.12 4.41c-.19.2-.36.39-.51.58a27.8 27.8 0 0 0 3.24 4 63.82 63.82 0 0 0 6.75 6c2.57 2 5.37 4 8.29 5.88 5.86 3.82 12.19 7.4 18.7 10.78s13.22 6.56 20 9.6 13.73 5.92 20.7 8.67q5.22 2.06 10.48 4l2.92 1.06 100-61.36a9.81 9.81 0 0 0 2.83-13.47zm-64.42-82.22l3.07 4.81-8 10.86-12.64-12.53-6.45-6.4-6.63 6.2-12.61 11.82-7.39-9.66 17.38-26.07 10.14-15.22 21.18 33.07v.09z"/><path d="M256.83 227.23S228.75 214 201.76 206.5L151.47 72.86a8.65 8.65 0 0 0-.61-1.34c-.08-.14-.18-.26-.26-.4a7.89 7.89 0 0 0-.51-.77 4.55 4.55 0 0 0-.35-.4c-.18-.21-.35-.41-.54-.6s-.28-.23-.42-.35-.37-.33-.57-.47l-.47-.29c-.2-.12-.4-.25-.61-.35l-.51-.22c-.21-.09-.42-.18-.63-.25a5.36 5.36 0 0 0-.54-.14c-.22-.06-.43-.11-.65-.15l-.55-.07h-1.81a4.62 4.62 0 0 0-.63.11 4.82 4.82 0 0 0-.52.11 6.4 6.4 0 0 0-.62.2c-.17.06-.34.11-.5.18s-.41.2-.6.3-.32.16-.48.26-.38.26-.57.4-.29.2-.43.32a6.82 6.82 0 0 0-.55.53c-.12.12-.25.23-.36.36s-.37.46-.55.7-.18.23-.27.36a10.33 10.33 0 0 0-.69 1.23l-34 72.26-50.4 106.84a9.81 9.81 0 0 0 3.43 12.41L157.2 327l-1.73-1.32c-3.48-2.7-6.94-5.56-10.39-8.74a100.61 100.61 0 0 1-10.25-10.84 67.65 67.65 0 0 1-5-7 49.7 49.7 0 0 1-4.46-9.18 39.37 39.37 0 0 1-2.37-12.55 35.22 35.22 0 0 1 2.53-14 39.83 39.83 0 0 1 5.85-9.8 43.4 43.4 0 0 1 7-6.83 58.45 58.45 0 0 1 13.88-7.89 116 116 0 0 1 25.57-6.74c8.22-1.32 16.25-2.07 24.19-2.59s15.78-.8 23.54-1 15.46-.34 23-.59c3-.1 5.93-.23 8.83-.41zm-107.69-85.12l-7.5-10.18-7.72 10-7.56 9.76-9.19-16.89 26.13-55.47 21.29 56.93-8.22 15.67z"/></g></svg>