<svg xmlns="http://www.w3.org/2000/svg" viewBox="0 0 400 400"><defs><linearGradient id="a" x1="300.02" y1="26.77" x2="99.98" y2="373.23" gradientUnits="userSpaceOnUse"><stop offset="0" stop-color="#9f8af9"/><stop offset=".65" stop-color="#784ef9"/><stop offset="1" stop-color="#3f3882"/></linearGradient></defs><rect width="400" height="400" rx="200" ry="200" fill="url(#a)"/><path d="M329.73 176.21c-7.39-14.05-28.82-37.85-29.73-38.85-.1-.12-.2-.23-.31-.34l-3.4-3.4c-33.12-34.71-51-40.21-58.77-40.33 3.75-25.59-4.88-45.79-4.77-47.69a9.16 9.16 0 0 1-.52 1v-1s-15.95 23.21-21.86 42.47c-2.14.14-4.29.39-6.44.71l-17.9-26a4.89 4.89 0 0 0-8.56 1l-4.19 10.73c-10.12-15-24.44-24.24-25-25.6.32 2.17 2.91 36 10.26 56.51a249.09 249.09 0 0 0-40.2 27.86l-2.89 2.53-.17 3.84-.69 16v.39c0 15.56-2.79 23.63-2.9 24-9.23 24.24-19 51.59-22.06 60.08a37.17 37.17 0 0 0-13.18 23.79c-1.45 9.66 0 17.21 4.41 23.78 4.26 6.28 11.37 11.48 22.39 16.38l1.3.58a69.64 69.64 0 0 0 16.82 3.35l-.05-.12c10.49 1.26 22.81.46 30.59-7.68 10.23-10.7 18.67-34.46 26.56-37.33s28.72-12.2 28.72-12.2c4.28 21.33 5.35 44.64-1.53 71.22a3.28 3.28 0 0 0 4.34 3.91 203.5 203.5 0 0 0 36.66-19c-.08 4.45 0 7.61.05 8.73a12.12 12.12 0 0 0 .12 1.24 9 9 0 0 0 8.87 7.52h.75a9 9 0 0 0 8.26-8.66c.32-1.33 3.85-13.21 33-40.7a89.16 89.16 0 0 0 26.54-48 99 99 0 0 0-.16-37.81 9 9 0 0 0 5.65-12.89zM165.43 108zm-45.31 75.17s3.48-9 3.48-27.12l.7-16a196.5 196.5 0 0 1 29.33-22.22c1.52-.93 10-6 16.37-7.85l-.19-.28.17.06 7.23-18.51-.59 18.75-10.51 7.14c-3.94 2-27.3 17.9-60.28 121.42a38.26 38.26 0 0 0-6.11 0c4.08-11.31 12.42-34.42 20.4-55.38zm4.24 104.18a18.77 18.77 0 0 0-8.19 6.83 1.61 1.61 0 0 1-3-.8.28.28 0 0 1 0-.09c.92-6.47 6.2-11.13 7.63-12.29a3.75 3.75 0 1 1 3.58 6.35zM120.82 275c-20.17 3.48-13.91 20.86-13.91 20.86-18.77-8.34-23.64-16.68-21.55-30.59a28.3 28.3 0 0 1 10.58-18.67c2.69-1.08 8.64-2.16 20.35.84v-.1c7.66 1.9 12.35 4.95 23.61 24.92-3.17.26-8.9.95-19.08 2.74zM237.6 172.37c-7.24 17.91-30.23 36.57-30.23 36.57s15.83-33.36 5.93-48.7c-6.89-10.68-15.51-16.59-23.27-16.59-7.17 0-13.62 5-17.28 16-5.9 17.69 7 26.42 21.52 26.42a37.88 37.88 0 0 0 7.9-.84 10.64 10.64 0 0 1 2.23-.28c9.15 0-7.79 19-7.79 19s-25 23.64-37.55 40.33a107 107 0 0 0-13.7 23.28C134 247.63 128 243 117.91 240.53c-1.92-.47-3.61-.85-5-1.14 33-103.11 56.22-115.91 56.36-116l.29-.13 13.93-9.47L184.63 78 217 124.92h.06a50.45 50.45 0 0 0 17 15.19c11.85 6.22 15.07 3.75 3.54 32.26zm-48.92-19.26A9.51 9.51 0 0 1 190 153s7.68-.86 12.8 9.26a5.44 5.44 0 0 1-.29 5.39c-2.1 3.26-6.37 8.35-12.49 8.35-5.52 0-10-5.14-10-11.49a12.82 12.82 0 0 1 1-5 6.5 6.5 0 1 0 7.68-6.4zm132.38 27.32a21.64 21.64 0 0 1-9.22-2.47c10.24 30.27 6 65.54-20.32 90.4-35.34 33.34-35.83 45.89-35.81 46.87-.07-1.75-1.43-39.71 11.47-60.08.83-1.31 1.67-2.68 2.49-4.11a24.34 24.34 0 0 1-9.5 2.11 13.16 13.16 0 0 1-5.85-1.13s27.81-17.39 16-66.75-37.82-71.13-37.82-71.13l4.18-11.82a3.21 3.21 0 0 1 .59 0c3.09 0 18.63 2 52.59 37.63l3.47 3.48s21.49 23.8 28.45 37a6.63 6.63 0 0 1-.72 0z" fill="#fff"/></svg>