<svg xmlns="http://www.w3.org/2000/svg" xmlns:xlink="http://www.w3.org/1999/xlink" viewBox="0 0 400 400"><defs><linearGradient id="linear-gradient" x1="300.02" y1="28.77" x2="99.98" y2="375.23" gradientUnits="userSpaceOnUse"><stop offset="0" stop-color="#9f8af9"/><stop offset="0.65" stop-color="#784ef9"/><stop offset="1" stop-color="#3f3882"/></linearGradient></defs><title>MTZ Icons v1-2</title><g id="Background"><rect y="2" width="400" height="400" rx="200" ry="200" fill="url(#linear-gradient)"/></g><g id="TEMP_icons" data-name="TEMP icons"><path d="M60.38,136.44c0-5.52,2.86-8.58,8.38-8.58h43.31c26.15,0,45,13.48,45,37.39,0,13.48-6.54,25.13-17.57,31.05v.41c15.73,4.7,23.29,19.41,23.29,34.12,0,29-23.09,42.09-50.06,42.09H68.76c-5.52,0-8.38-2.86-8.38-8.58Zm51.9,50.67c11.44,0,17.77-8.17,17.77-18.59s-6.13-18-18.39-18H86.53v36.57Zm2.45,63.13c13.48,0,21-8.78,21-21,0-12.06-7.76-20.84-21-20.84H86.53v41.88Z" fill="#fff"/><path d="M173.77,136.44c0-5.52,2.86-8.58,8.38-8.58h11c4.9,0,8,1.63,10.22,5.72l51.48,78c5.52,8.58,12.06,22.47,12.06,22.47h.41s-1.43-13.89-1.43-22.47V136.44c0-5.52,3.06-8.58,8.58-8.58h9.19c5.52,0,8.58,3.06,8.58,8.58v127.9c0,5.72-3.06,8.58-8.58,8.58h-11c-4.5,0-7.77-1.63-10-5.72L211,189.36c-5.32-8.58-12.06-22.48-12.06-22.48h-.41s1.43,13.9,1.43,22.48v75c0,5.72-2.86,8.58-8.37,8.58h-9.4c-5.52,0-8.38-2.86-8.38-8.58Z" fill="#fff"/><path d="M311.48,136.44c0-5.52,2.86-8.58,8.37-8.58h9.4c5.52,0,8.38,3.06,8.38,8.58v127.9c0,5.72-2.86,8.58-8.38,8.58h-9.4c-5.51,0-8.37-2.86-8.37-8.58Z" fill="#fff"/></g></svg>