<svg xmlns="http://www.w3.org/2000/svg" viewBox="0 0 400 400"><defs><linearGradient id="a" x1="300.02" y1="26.77" x2="99.98" y2="373.23" gradientUnits="userSpaceOnUse"><stop offset="0" stop-color="#9f8af9"/><stop offset=".65" stop-color="#784ef9"/><stop offset="1" stop-color="#3f3882"/></linearGradient></defs><rect width="400" height="400" rx="200" ry="200" fill="url(#a)"/><g fill="#fff"><path d="M346.55 141.5l-97.16-56.35a8.92 8.92 0 0 0-4.48-1.2h-.13c-1.07 0-26.17.63-40.83 21.65-13 18.65-13.18 46.42-.5 82.54l.06.18c.05.14 6.63 18.77-3.28 35.7-8.62 14.73-27.09 24.51-54.9 29.1a8.93 8.93 0 0 0-3 16.54L239.45 326a9 9 0 0 0 4.49 1.21h.49c21.71-1.2 39.29-5.62 52.24-13.15 11.5-6.69 19.48-15.79 23.72-27.06 4.69-12.47 3.69-25 2-33.31-.64-3.23-2.62-11.09-5.19-15.8-10.28-29.62-10.79-52.33-1.46-65.71s26.27-14 26.44-14a8.94 8.94 0 0 0 4.35-16.67zM223.1 117a3.48 3.48 0 0 1 4.75-1.27l65 37.49a3.48 3.48 0 1 1-3.48 6l-64.94-37.49a3.47 3.47 0 0 1-1.33-4.73zm67.9 96.5a3.47 3.47 0 0 1-4.75 1.27l-64.94-37.5a3.47 3.47 0 0 1 3.47-6l64.95 37.49a3.48 3.48 0 0 1 1.27 4.74zm-74.52-69.4a3.48 3.48 0 0 1 4.75-1.27l64.95 37.5a3.47 3.47 0 1 1-3.48 6l-65-37.49a3.48 3.48 0 0 1-1.26-4.74zm-6.75 122.2a3.48 3.48 0 0 1-3.47 3.38h-.11a3.47 3.47 0 0 1-3.37-3.57l.12-3.82-9.27.09a3.48 3.48 0 0 1 0-7l9.55-.1.12-4.1a3.47 3.47 0 1 1 6.94.21l-.11 3.82 9.26-.09a3.48 3.48 0 1 1 .07 7l-9.54.1zm54.75 33.51a3.48 3.48 0 0 1-3 1.74 3.44 3.44 0 0 1-1.73-.47l-46.7-27a3.47 3.47 0 0 1 3.47-6l46.7 27a3.46 3.46 0 0 1 1.22 4.73zm31.85-56.11a3.47 3.47 0 0 1-4.75 1.27l-64.98-37.49a3.47 3.47 0 1 1 3.47-6L295 239a3.48 3.48 0 0 1 1.29 4.7z"/><path d="M200.46 246c-.14-.26-8.26-14.78-20.43-33.29a8.94 8.94 0 0 0 1-6.93c-11.86-44.14-33.68-61.89-41.89-68.58l-.28-.23C91.59 97.26 81.14 94 73.16 94h-1.44a10.67 10.67 0 0 0-8.85 5.44c-2.63 4.66-1.76 11.23 2.6 19.51l.09.17C78 141.57 88.15 154.18 99 167.53c4 4.93 8.1 10 12.52 15.83 8.32 10.94 15.74 18.84 22.05 23.48l.11.09c.21.17.43.33.65.48l.36.24a8.29 8.29 0 0 0 1.12.64c15.14 7.29 35.21 8.65 36.06 8.7h.57a9 9 0 0 0 2-.23c11.9 18.12 19.85 32.33 20 32.58a3.49 3.49 0 0 0 3 1.79 3.58 3.58 0 0 0 1.69-.44 3.48 3.48 0 0 0 1.33-4.69zm-60.82-45.74l-.37-.24c-.69-.63-7.45-4.64-20.69-22.05-16.6-21.82-28.72-33.33-45.2-63.08 0 0-6.09-11.57-1.13-11.87h.91c5.16 0 15.17 3.22 60 40.87 6.43 5.24 23.86 19 35.52 52.23-7-9.81-14.63-19.86-22.54-28.94-22.38-25.7-29.1-30.25-29.79-30.68a3.48 3.48 0 1 0-3.69 5.89c.06 0 6.5 4.39 28.24 29.35a396.68 396.68 0 0 1 27.4 36c-6.3-.8-18.84-2.74-28.66-7.5z"/></g></svg>