<svg xmlns="http://www.w3.org/2000/svg" viewBox="0 0 400 400"><defs><linearGradient id="a" x1="300.02" y1="26.77" x2="99.98" y2="373.23" gradientUnits="userSpaceOnUse"><stop offset="0" stop-color="#9f8af9"/><stop offset=".65" stop-color="#784ef9"/><stop offset="1" stop-color="#3f3882"/></linearGradient></defs><rect width="400" height="400" rx="200" ry="200" fill="url(#a)"/><g fill="#fff"><path d="M135.49 205.74V200c0-5.53-3.07-8.4-8.6-8.4H87.15v-41.17H136a16.87 16.87 0 0 1 3.18-8l.06-.09.07-.09a66.23 66.23 0 0 1 15.06-14.55h-85c-5.53 0-8.4 3.07-8.4 8.6v128.22c0 5.74 2.87 8.61 8.4 8.61h9.42c5.53 0 8.4-2.87 8.4-8.61v-50.18h39.74c5.49 0 8.56-3.07 8.56-8.6z"/><path d="M308.71 127.7h-47.52c-5.53 0-8.4 3.07-8.4 8.6v114.09h-80.41c1.23-27.45 66.36-35.44 66.36-82.14 0-27.44-21.91-43-47.31-43-23.76 0-37.28 13.52-43.63 21.91-3.08 4.31-2.05 8.2 2.25 11.48l5.53 4.3a7.39 7.39 0 0 0 4.81 2c2.47 0 4.91-1.45 7.28-3.82 3.68-4.5 11.06-10.85 21.5-10.85 12.29 0 22.13 7.58 22.13 20.28 0 28.88-68 37.28-68 89.71v4.3c0 5.74 3.89 8.61 9.22 8.61h118.1c5.53 0 8.4-2.87 8.4-8.61v-41.62h29.7C336 222.94 355 203.28 355 175s-19-47.3-46.29-47.3zm-4.92 72.3H279v-49.57h25.2c15.16 0 24 9.63 24 24.58-.03 15.16-8.84 24.99-24.41 24.99z"/></g></svg>