<svg xmlns="http://www.w3.org/2000/svg" xmlns:xlink="http://www.w3.org/1999/xlink" viewBox="0 0 400 400"><defs><linearGradient id="linear-gradient" x1="300.02" y1="26.77" x2="99.98" y2="373.23" gradientUnits="userSpaceOnUse"><stop offset="0" stop-color="#9f8af9"/><stop offset="0.65" stop-color="#784ef9"/><stop offset="1" stop-color="#3f3882"/></linearGradient></defs><title>1-3</title><g id="Background"><rect width="400" height="400" rx="200" ry="200" fill="url(#linear-gradient)"/></g><g id="Icon"><g id="BNI"><path d="M278.42,240.3,272,257.42a5.22,5.22,0,0,1-10-3l4-17.86a6.52,6.52,0,1,1,12.72,2.83A7,7,0,0,1,278.42,240.3Z" fill="#fff"/><path d="M303.85,261.25l-18.12,12.39a5.21,5.21,0,0,1-6.37-8.22L295.9,251a6.51,6.51,0,0,1,8.56,9.81A7.05,7.05,0,0,1,303.85,261.25Z" fill="#fff"/><path d="M310.5,294.37l-18.29-.7a5.22,5.22,0,0,1-.34-10.4l18.2-1.89a6.52,6.52,0,1,1,1.35,13A5.7,5.7,0,0,1,310.5,294.37Z" fill="#fff"/><path d="M137.28,237.58l4,17.86a5.22,5.22,0,0,1-10,3l-6.47-17.12A6.52,6.52,0,1,1,137,236.69,5.65,5.65,0,0,1,137.28,237.58Z" fill="#fff"/><path d="M107.35,252l16.54,14.45a5.21,5.21,0,0,1-6.37,8.22L99.39,262.25a6.51,6.51,0,0,1,7.35-10.75A5.79,5.79,0,0,1,107.35,252Z" fill="#fff"/><path d="M93.18,282.38l18.2,1.89a5.22,5.22,0,0,1-.34,10.4l-18.29.7a6.51,6.51,0,0,1-.5-13A7.23,7.23,0,0,1,93.18,282.38Z" fill="#fff"/><path d="M225.17,139.37l5.28,46.43A28.66,28.66,0,0,0,243.59,205l9.89,6.09,9.89-6.09a28.63,28.63,0,0,0,13.14-19.18l5.29-46.43-28.32-20.53Z" fill="#fff"/><path d="M275.18,293.53c-1.6-12.24-15.87-22.61-36.87-28.28l-6.48-56.81a38.66,38.66,0,0,1-11.21-20.83c0-.22-.08-.45-.1-.68l-5.29-46.42a10,10,0,0,1,4.07-9.23l13.36-9.69L229,110.39a11.31,11.31,0,0,0-7.07-7.07L208.61,99.1l-.53-7.84a25.08,25.08,0,1,0-16-.45l-.56,8.29-13.32,4.22a11.34,11.34,0,0,0-7.07,7.07l-19,58-7.14-2-3.34,11.91L80.39,159.05l-14,2,9.32,9.78,63.17,17.69-3.11,11.08,7.78,2.19L147,189.4l15.89,4.5,2.14-7.57L153.33,183l28-49.19s2.7,14.63-3.41,28.13-8.44,36.73-8.44,36.73L161,265.87c-19.8,5.79-33.15,15.85-34.69,27.66a3.79,3.79,0,0,0-.16,1.07v22.18a3.9,3.9,0,0,0,.41,1.73c3.9,17.9,35.07,31.42,74.17,31.42,41.82,0,74.58-15.47,74.58-35.22V294.6A3.8,3.8,0,0,0,275.18,293.53ZM191,204.15h18.17l15.76,58.29a155.73,155.73,0,0,0-24.16-1.83A153.39,153.39,0,0,0,173.46,263Zm9.77,119c-39.91,0-66.72-14.15-66.72-27.36,0-7.92,9.63-16.17,25.93-21.51l-1.87,15a3.73,3.73,0,0,0,3.7,4.2,3.42,3.42,0,0,0,3.27-2.44l5.86-19.64a145.64,145.64,0,0,1,29.83-2.93,148.13,148.13,0,0,1,26.41,2.27l7.88,29.13a3.76,3.76,0,0,0,3.63,2.78h.56a3,3,0,0,0,2.95-3.31l-2.93-25.74c17.68,5.3,28.21,13.95,28.21,22.23C267.48,309,240.67,323.19,200.77,323.19Z" fill="#fff"/></g></g></svg>