<svg xmlns="http://www.w3.org/2000/svg" xmlns:xlink="http://www.w3.org/1999/xlink" viewBox="0 0 400 400"><defs><linearGradient id="linear-gradient" x1="300.02" y1="26.77" x2="99.98" y2="373.23" gradientUnits="userSpaceOnUse"><stop offset="0" stop-color="#5ae5de"/><stop offset="0.56" stop-color="#2abcb8"/><stop offset="0.84" stop-color="#108787"/><stop offset="1" stop-color="#14605a"/></linearGradient></defs><title>1-3</title><g id="Background"><rect width="400" height="400" rx="200" ry="200" fill="url(#linear-gradient)"/></g><g id="Icon"><g id="F2P"><path d="M135.49,205.74V200c0-5.53-3.07-8.4-8.6-8.4H87.15V150.43H136a16.87,16.87,0,0,1,3.18-8l.06-.09.07-.09a66.23,66.23,0,0,1,15.06-14.55h-85c-5.53,0-8.4,3.07-8.4,8.6V264.52c0,5.74,2.87,8.61,8.4,8.61h9.42c5.53,0,8.4-2.87,8.4-8.61V214.34h39.74C132.42,214.34,135.49,211.27,135.49,205.74Z" fill="#fff"/><path d="M308.71,127.7H261.19c-5.53,0-8.4,3.07-8.4,8.6V250.39H172.38c1.23-27.45,66.36-35.44,66.36-82.14,0-27.44-21.91-43-47.31-43-23.76,0-37.28,13.52-43.63,21.91-3.08,4.31-2.05,8.2,2.25,11.48l5.53,4.3a7.39,7.39,0,0,0,4.81,2c2.47,0,4.91-1.45,7.28-3.82,3.68-4.5,11.06-10.85,21.5-10.85,12.29,0,22.13,7.58,22.13,20.28,0,28.88-68,37.28-68,89.71v4.3c0,5.74,3.89,8.61,9.22,8.61h118.1c5.53,0,8.4-2.87,8.4-8.61V222.94h29.7C336,222.94,355,203.28,355,175S336,127.7,308.71,127.7ZM303.79,200H279V150.43H304.2c15.16,0,24,9.63,24,24.58C328.17,190.17,319.36,200,303.79,200Z" fill="#fff"/></g></g></svg>