<svg xmlns="http://www.w3.org/2000/svg" xmlns:xlink="http://www.w3.org/1999/xlink" viewBox="0 0 400 400"><defs><linearGradient id="linear-gradient" x1="300.02" y1="26.77" x2="99.98" y2="373.23" gradientUnits="userSpaceOnUse"><stop offset="0" stop-color="#9f8af9"/><stop offset="0.65" stop-color="#784ef9"/><stop offset="1" stop-color="#3f3882"/></linearGradient></defs><title>1-3</title><g id="Background"><rect width="400" height="400" rx="200" ry="200" fill="url(#linear-gradient)"/></g><g id="Icon"><g id="IMH"><path d="M234.3,172.24a4.41,4.41,0,0,0-6.21.5l-3.51,4.14a18.13,18.13,0,0,0-22.73,5.73c-4.34,6.09-5.52,10.91-3,24.61l-17,20a9.3,9.3,0,0,1,1.15-8.64,4.4,4.4,0,1,0-7.17-5.11,18.14,18.14,0,0,0-.07,20.91l-2.65,3.12a4.4,4.4,0,0,0,6.71,5.69l2.58-3a18.13,18.13,0,0,0,23-5.64c4.37-6.14,5.53-11,3-24.9l16.92-19.93a9.37,9.37,0,0,1-1,8.88,4.4,4.4,0,1,0,7.16,5.11,18.08,18.08,0,0,0-.06-21.11l3.49-4.11A4.39,4.39,0,0,0,234.3,172.24ZM209,187.72a9.34,9.34,0,0,1,9.51-3.71l-12.08,14.23C206,192,207.22,190.23,209,187.72Zm-10.82,41.67a9.34,9.34,0,0,1-9.76,3.65l12.31-14.49C201.3,225,200,226.83,198.19,229.39Z" fill="#fff"/><path d="M273.27,230.35c11.54-34.75,7.41-67.16,4.31-82.21,13.24-9.79,17.28-20.76,18.24-28.62a34.32,34.32,0,0,0-2.48-17.86,8.8,8.8,0,0,0-13.14-3.3,3,3,0,0,1-1.12.18c-1.35,0-5.14-.65-11.21-6.61-6.9-6.8-14.13-10.24-21.48-10.24a22.43,22.43,0,0,0-16,6.7,8.8,8.8,0,0,0-1.62,9.3l13.93,33.55c-11.67,4.66-21.81,5.11-30.59,5.11-1.57,0-3.09,0-4.58,0l-4.31,0a76.87,76.87,0,0,0-11.35.67,79.1,79.1,0,0,0-11,1.4,78.22,78.22,0,0,0-61.3,91.93c0,.1,0,.21.07.31-26.47,10.11-43.33,25.31-43.33,42.31,0,30.43,53.93,55.09,120.45,55.09s120.44-24.66,120.44-55.09C317.27,255.76,300.13,240.45,273.27,230.35Zm-36.33-136a13.48,13.48,0,0,1,9.45-3.83c4.06,0,9.27,1.77,15.31,7.71,7.42,7.3,13.32,9.14,17.38,9.14a10.25,10.25,0,0,0,6.32-1.88s9.13,19.08-12.87,35.47L251.6,129.64ZM182.66,147a70,70,0,0,1,10.17-1.27,66.14,66.14,0,0,1,10.43-.63c2.81,0,5.77.07,8.89.07,10.49,0,22.71-.74,36.75-7l19.84,10.7c2.61,12.16,8,46.36-5.05,82.23a69.33,69.33,0,1,1-81-84.12Z" fill="#fff"/><path d="M157.43,134.3h0a5.86,5.86,0,0,1-5.85-5.88l.13-36.94a5.87,5.87,0,0,1,5.86-5.85h0a5.88,5.88,0,0,1,5.85,5.89l-.12,36.94A5.87,5.87,0,0,1,157.43,134.3Z" fill="#fff"/><path d="M133.2,148.42h0a5.86,5.86,0,0,1-5.84-5.89l0-17.61a5.87,5.87,0,0,1,5.87-5.85h0a5.87,5.87,0,0,1,5.85,5.89l-.06,17.61A5.87,5.87,0,0,1,133.2,148.42Z" fill="#fff"/><path d="M181.66,126.44h0a5.87,5.87,0,0,1-5.85-5.89L176,63.73a5.87,5.87,0,0,1,5.87-5.85h0a5.87,5.87,0,0,1,5.85,5.89l-.19,56.82A5.86,5.86,0,0,1,181.66,126.44Z" fill="#fff"/><path d="M206,126h0a5.86,5.86,0,0,1-5.85-5.88l.07-18.75A5.86,5.86,0,0,1,206,95.48h0a5.87,5.87,0,0,1,5.85,5.89l-.06,18.75A5.87,5.87,0,0,1,206,126Z" fill="#fff"/></g></g></svg>