<svg xmlns="http://www.w3.org/2000/svg" xmlns:xlink="http://www.w3.org/1999/xlink" viewBox="0 0 400 400"><defs><linearGradient id="linear-gradient" x1="300.02" y1="26.77" x2="99.98" y2="373.23" gradientUnits="userSpaceOnUse"><stop offset="0" stop-color="#9f8af9"/><stop offset="0.65" stop-color="#784ef9"/><stop offset="1" stop-color="#3f3882"/></linearGradient></defs><title>1-3</title><g id="Background"><rect width="400" height="400" rx="200" ry="200" fill="url(#linear-gradient)"/></g><g id="Icon"><g id="NGWS"><path d="M203.44,161.07a5.94,5.94,0,0,1-5.94-5.94V42.94a5.94,5.94,0,0,1,11.88,0V155.13A5.94,5.94,0,0,1,203.44,161.07Z" fill="#fff"/><path d="M203,207.92a6.72,6.72,0,0,1-6.72-6.72V176a6.72,6.72,0,0,1,13.44,0V201.2A6.72,6.72,0,0,1,203,207.92Z" fill="#fff"/><path d="M231.63,231.22a5.94,5.94,0,0,1-5.94-5.94v-9.17a5.94,5.94,0,1,1,11.88,0v9.17A5.94,5.94,0,0,1,231.63,231.22Z" fill="#fff"/><path d="M203,250.72a5.94,5.94,0,0,1-5.94-5.94V220.69a5.94,5.94,0,0,1,11.88,0v24.09A5.94,5.94,0,0,1,203,250.72Z" fill="#fff"/><path d="M173.15,231.22a5.94,5.94,0,0,1-5.94-5.94v-1.15a5.94,5.94,0,0,1,11.88,0v1.15A5.94,5.94,0,0,1,173.15,231.22Z" fill="#fff"/><path d="M232.11,200.06a5.93,5.93,0,0,1-5.94-5.94V86.52a5.94,5.94,0,1,1,11.88,0v107.6A5.93,5.93,0,0,1,232.11,200.06Z" fill="#fff"/><path d="M173.62,208.28a5.94,5.94,0,0,1-5.94-5.94V86.52a5.94,5.94,0,1,1,11.88,0V202.34A5.94,5.94,0,0,1,173.62,208.28Z" fill="#fff"/><path d="M304.71,166.94l-36.84-21.28V129A5.94,5.94,0,1,0,256,129V232.21l-52.36,30.23a1,1,0,0,1-1,0l-52.83-30.51V129a5.94,5.94,0,0,0-11.88,0v82.94l-10.94,6.32v.55l-.62-.36v.1l-.18-.1-35.26-5.88a1,1,0,0,0-.67,1.95l35.57,19.59a1,1,0,0,1,.54.91v68.29a7.25,7.25,0,0,0,.62,2.92v1.09l.43-.25a7.28,7.28,0,0,0,2.59,2.55l72.82,42V352l.34-.19.33.19v-.39l72.82-42a7.28,7.28,0,0,0,3.65-6.31v-4.71a6.24,6.24,0,0,0,.36-2.09V219l26.59-43.62A6.07,6.07,0,0,0,304.71,166.94Z" fill="#fff"/></g></g></svg>