<svg xmlns="http://www.w3.org/2000/svg" xmlns:xlink="http://www.w3.org/1999/xlink" viewBox="0 0 400 400"><defs><linearGradient id="linear-gradient" x1="300.02" y1="26.77" x2="99.98" y2="373.23" gradientUnits="userSpaceOnUse"><stop offset="0" stop-color="#9f8af9"/><stop offset="0.65" stop-color="#784ef9"/><stop offset="1" stop-color="#3f3882"/></linearGradient></defs><title>1-3</title><g id="Background"><rect width="400" height="400" rx="200" ry="200" fill="url(#linear-gradient)"/></g><g id="Icon"><g id="PwP"><path d="M228.77,292.36v10.19a6,6,0,0,1-12,0v-8.93q-9,.7-18.21.72t-18.21-.72v8.93a6,6,0,0,1-12,0V292.36a179.66,179.66,0,0,1-45.44-11.89V291.2h.26c3.09,19.47,35.65,34.8,75.39,34.8s72.3-15.33,75.39-34.8h.26V280.47A179.54,179.54,0,0,1,228.77,292.36Z" fill="#fff"/><path d="M330.19,167.13a80.78,80.78,0,0,0-6-22.3,1,1,0,0,1-.07-.15c-.27-.63-.55-1.24-.83-1.85-.06-.12-.11-.23-.16-.35-.27-.57-.55-1.14-.83-1.71-.08-.14-.15-.29-.22-.43-.28-.55-.56-1.09-.85-1.63l-.25-.47c-.29-.52-.58-1.05-.88-1.56l-.27-.49-.91-1.52c-.1-.15-.19-.31-.29-.47-.31-.5-.63-1-.95-1.5-.1-.14-.2-.29-.29-.44l-1-1.49-.28-.39c-.35-.5-.7-1-1.07-1.5l-.22-.3c-.39-.52-.77-1-1.16-1.54l-.14-.18a95.06,95.06,0,0,0-10.31-11.24l-.11-.1c-.47-.44-.94-.88-1.42-1.3l-.25-.23-1.37-1.2c-.11-.09-.22-.18-.32-.28-.45-.38-.9-.76-1.36-1.13l-.36-.3c-.44-.37-.89-.73-1.35-1.09l-.38-.31L295,108.63l-.4-.3c-.45-.35-.91-.69-1.37-1l-.38-.28-1.41-1-.34-.23-1.47-1-.27-.18-1.56-1-.1-.07c-3.5-2.3-7.06-4.41-10.63-6.33l-.19-.1c-.5-.27-1-.54-1.51-.8L275,96l-1.4-.72-.48-.24c-.45-.22-.89-.45-1.34-.66l-.54-.27-1.29-.62-.57-.27-1.26-.59-.6-.28-1.25-.56-.59-.26L264.39,91l-.59-.26-1.22-.52L262,90l-1.22-.51-.54-.22-1.26-.5-.45-.18c-.44-.17-.88-.35-1.32-.51L257,88c-1.53-.59-3-1.14-4.52-1.67l-.33-.11L251,85.8l-.61-.22-1-.33-.7-.23-.91-.3-.73-.24-.88-.28-.73-.23-.83-.26-.75-.23-.78-.24-.76-.22-.73-.22-.77-.22-.71-.2-.74-.21-.69-.19-.74-.2-.63-.18-.76-.2-.58-.15-.77-.2-.52-.13-.87-.22-.36-.09-1.2-.29c-1.06-.26-2.14-.51-3.23-.75-1.71-.37-3.44-.73-5.22-1L222,78.21h0a148.5,148.5,0,0,0-46.86,0h0l-1.84.31c-2.91.52-5.72,1.12-8.45,1.8l-1.19.29-.42.1-.81.21-.56.14-.73.19-.61.16-.72.19-.66.18-.72.19-.71.2-.71.2-.74.21-.72.21-.78.23-.71.21-.84.26-.68.21-.89.27-.65.21-1,.31-.61.19-1,.34-.51.18-1.16.39-.29.1c-2.58.89-5.26,1.87-8,3l-.17.07-1.48.6-.31.12L135,90l-.37.16-1.41.6-.39.17-1.44.63-.36.16-1.47.66-.35.16-1.49.7-.31.15-1.55.75-.23.11-1.64.81-.09,0A142.79,142.79,0,0,0,106,105.83l0,0c-.56.39-1.12.8-1.68,1.21l-.09.06-1.66,1.24-.08.06c-.55.42-1.11.85-1.65,1.28l0,0a99.09,99.09,0,0,0-18.46,18.85l0,0c-.43.58-.85,1.17-1.26,1.76l-.07.11c-.41.58-.81,1.17-1.2,1.76l-.08.13c-.39.59-.78,1.19-1.15,1.8l-.08.12q-.57.91-1.11,1.86l0,.07a79.6,79.6,0,0,0-8.12,19.54v0a82.93,82.93,0,0,0-2.18,11.31c-4.12,33.66,6.59,57.88,19.51,74.29h0c.78,1,1.57,2,2.37,2.9l0,0c1.54,1.81,3.1,3.52,4.66,5.12l.4.41c.73.74,1.47,1.48,2.2,2.18,5.66,6.34,13.58,12.07,23.3,16.91.84.43,1.31.64,1.31.64h0c20.17,9.73,47.59,15.72,77.83,15.72s57.66-6,77.83-15.72h0s.47-.21,1.3-.64c9.72-4.84,17.64-10.56,23.3-16.91.84-.8,1.67-1.63,2.5-2.49l.35-.35c.8-.83,1.6-1.69,2.4-2.57l.4-.44q1.2-1.35,2.4-2.79l.3-.37C322.86,226.65,334.46,201.94,330.19,167.13ZM92.55,236.94c-11.86-15-22-37.5-18.11-68.89a74.73,74.73,0,0,1,2.23-11.16C94.59,161.41,108,179.51,108,201.18,108,215.72,101.94,228.64,92.55,236.94ZM143.77,94.69a192,192,0,0,1,22.82-7h.07c2.58-.64,5.25-1.21,8-1.69l.73-.13,1-.16a141.14,141.14,0,0,1,44.44,0l.87.14.87.15c2.69.48,5.36,1,7.94,1.69h.07a190.82,190.82,0,0,1,24.84,7.79,14.17,14.17,0,0,1,2.26,7.5c0,15-26.1,27.09-58.31,27.09S141,117.93,141,103A14.55,14.55,0,0,1,143.77,94.69Zm58,129c9.21,6.47,9.5,9,9.88,12.63a7.87,7.87,0,0,1-2,5.93,14.5,14.5,0,0,1-7.9,4.51Zm-64.88-8.15c0-23.81,24.6-43.32,55.88-45.23v4.84A23.81,23.81,0,0,0,178.31,183a16.83,16.83,0,0,0-4,12.69c.88,8.1,3.89,12.86,18.52,22.29v28.66c-5.06-1.34-8.94-4.71-9.39-8.79a4.5,4.5,0,1,0-8.94,1c.92,8.55,8.62,15.32,18.33,17v4.34a5.8,5.8,0,0,0,.06.6C161.54,258.9,136.91,239.37,136.91,215.55Zm55.88-31.21v22.79c-8.9-6.31-9.19-8.86-9.57-12.41a7.91,7.91,0,0,1,2-5.93A14.51,14.51,0,0,1,192.79,184.34Zm8.94,76.5a4.76,4.76,0,0,0,.06-.66v-4.24a24,24,0,0,0,14.8-7.89,16.83,16.83,0,0,0,4-12.69c-.88-8.15-3.93-12.93-18.83-22.49V184.32c5.22,1.28,9.25,4.72,9.7,8.88a4.5,4.5,0,1,0,8.95-1c-.94-8.64-8.79-15.48-18.65-17.08v-4.88c31.77,1.53,56.91,21.21,56.91,45.28S233.53,259.33,201.73,260.84ZM306,235.06a48,48,0,0,1-13.47-33.88c0-20.37,11.86-37.6,28.17-43.34a74.59,74.59,0,0,1,2,10.21C326.37,198.16,317.23,220.06,306,235.06Z" fill="#fff"/></g></g></svg>