<?xml version="1.0" encoding="utf-8"?>
<!-- Generator: Adobe Illustrator 22.0.1, SVG Export Plug-In . SVG Version: 6.00 Build 0)  -->
<svg version="1.1" id="Layer_1" xmlns="http://www.w3.org/2000/svg" xmlns:xlink="http://www.w3.org/1999/xlink" x="0px" y="0px"
	 viewBox="0 0 50 50" style="enable-background:new 0 0 50 50;" xml:space="preserve">
<style type="text/css">
	.st0{fill:#FFFFFF;}
</style>
<g>
	<g>
		<path class="st0" d="M50,44L36.1,30c1.9-3,3.1-6.6,3.1-10.5C39.1,8.8,30.4,0,19.6,0C8.8,0,0,8.8,0,19.6c0,10.8,8.8,19.6,19.6,19.6
			c3.8,0,7.4-1.1,10.5-3.1L44,50L50,44z M5.7,19.6c0-7.6,6.2-13.9,13.9-13.9s13.9,6.2,13.9,13.9s-6.2,13.9-13.9,13.9
			S5.7,27.2,5.7,19.6z"/>
	</g>
</g>
</svg>
