<svg xmlns="http://www.w3.org/2000/svg" xmlns:xlink="http://www.w3.org/1999/xlink" viewBox="0 0 400 400"><defs><linearGradient id="linear-gradient" x1="300.02" y1="26.77" x2="99.98" y2="373.23" gradientUnits="userSpaceOnUse"><stop offset="0" stop-color="#efe241"/><stop offset="0.01" stop-color="#f0e549"/><stop offset="0.08" stop-color="#f5f268"/><stop offset="0.12" stop-color="#f7f774"/><stop offset="0.17" stop-color="#f6f56e"/><stop offset="0.23" stop-color="#f3ee5d"/><stop offset="0.3" stop-color="#efe242"/><stop offset="0.31" stop-color="#efe241"/><stop offset="0.49" stop-color="#dcc435"/><stop offset="0.61" stop-color="#d3b42f"/><stop offset="0.77" stop-color="#bfa124"/><stop offset="1" stop-color="#9b8112"/></linearGradient><linearGradient id="linear-gradient-2" x1="67.48" y1="206.9" x2="318.99" y2="206.9" gradientUnits="userSpaceOnUse"><stop offset="0.39" stop-color="#d3b42f"/><stop offset="0.51" stop-color="#dcc435"/><stop offset="0.69" stop-color="#efe241"/></linearGradient></defs><title>1-3</title><g id="Background"><rect width="400" height="400" rx="200" ry="200" fill="url(#linear-gradient)"/></g><g id="Icon"><g id="S"><path d="M309.3,102.49a17.15,17.15,0,0,0-24.08-2.81c-70.51,55.76-111.42,123.1-131.07,162.39-23.66-38.58-45-56-50.48-60.09A17.66,17.66,0,1,0,81,228.86S102.34,244.77,123,277a332.58,332.58,0,0,1,17.34,31.26,17.14,17.14,0,0,0,15.4,9.61c.31,0,.63,0,.94,0a17.16,17.16,0,0,0,15.2-11.32c.37-1,38.1-103.6,134.59-179.9A17.16,17.16,0,0,0,309.3,102.49Z" fill="#fff"/><path d="M295.84,96a17.15,17.15,0,0,1,10.65,30.6C210,202.88,172.27,305.45,171.9,306.48a17.16,17.16,0,0,1-15.2,11.32c-.31,0-.63,0-.94,0a17.14,17.14,0,0,1-15.4-9.61A332.58,332.58,0,0,0,123,277C102.34,244.77,81,228.86,81,228.86A17.66,17.66,0,1,1,103.67,202c5.48,4.1,26.82,21.51,50.48,60.09,19.65-39.29,60.56-106.63,131.07-162.39A17.05,17.05,0,0,1,295.84,96m0-6a23.31,23.31,0,0,0-14.35,5,477.36,477.36,0,0,0-85.68,88.48A511.13,511.13,0,0,0,153.61,250c-21.33-32.43-40-48-46-52.59A23.66,23.66,0,1,0,77.41,233.7c1,.74,21.18,16.33,40.55,46.48a327.45,327.45,0,0,1,17,30.68,23.3,23.3,0,0,0,20.79,13c.42,0,.84,0,1.27,0a23.12,23.12,0,0,0,20.52-15.28c.37-1,37.87-102.27,132.66-177.23A23.14,23.14,0,0,0,295.84,90Z" fill="url(#linear-gradient-2)"/></g></g></svg>