<svg xmlns="http://www.w3.org/2000/svg" xmlns:xlink="http://www.w3.org/1999/xlink" viewBox="0 0 400 400"><defs><linearGradient id="linear-gradient" x1="300.02" y1="26.77" x2="99.98" y2="373.23" gradientUnits="userSpaceOnUse"><stop offset="0" stop-color="#9f8af9"/><stop offset="0.65" stop-color="#784ef9"/><stop offset="1" stop-color="#3f3882"/></linearGradient></defs><title>1-3</title><g id="Background"><rect width="400" height="400" rx="200" ry="200" fill="url(#linear-gradient)"/></g><g id="Icon"><g id="TiM"><path d="M200,74A126,126,0,1,1,74,200,126,126,0,0,1,200,74m0-11a137,137,0,1,0,96.87,40.13A136.08,136.08,0,0,0,200,63Z" fill="#fff"/><path d="M199.7,84.18A115.49,115.49,0,1,0,315.18,199.67,115.49,115.49,0,0,0,199.7,84.18ZM108.89,209.69a9.69,9.69,0,1,1,9.69-9.69A9.69,9.69,0,0,1,108.89,209.69Zm16.61-51.57a6.12,6.12,0,0,1,8.36-2.27l69.1,39.6a6.14,6.14,0,0,1,3.08,5.38l-.63,61.38a6.13,6.13,0,0,1-6.13,6.06h-.06a6.12,6.12,0,0,1-6.07-6.19l.6-57.79-66-37.81A6.12,6.12,0,0,1,125.5,158.12ZM200,302.74a9.7,9.7,0,1,1,9.69-9.69A9.69,9.69,0,0,1,200,302.74Zm14.91-137.6a18.6,18.6,0,0,1-9.93,6v2.68a4.84,4.84,0,0,1-4.84,4.85h0a4.85,4.85,0,0,1-4.85-4.85v-2.75c-7.15-1.87-12.67-7.64-13.36-14.82a4.84,4.84,0,1,1,9.64-.93,7.14,7.14,0,0,0,3.71,5.39V139.43c-9.82-7.22-12.8-11.49-13.5-18.77a16,16,0,0,1,3.78-11.87,18.65,18.65,0,0,1,9.7-6V98.89A4.85,4.85,0,0,1,200.09,94h0a4.85,4.85,0,0,1,4.84,4.85v3.92c7.25,1.8,12.89,7.6,13.59,14.86a4.85,4.85,0,0,1-9.65.92,7.18,7.18,0,0,0-3.94-5.51v21.26c10,7.31,13,11.59,13.73,18.93A16,16,0,0,1,214.91,165.14Zm77.17,44.55a9.69,9.69,0,1,1,9.69-9.69A9.69,9.69,0,0,1,292.08,209.69Z" fill="#fff"/><path d="M193,115a6.36,6.36,0,0,0-1.55,4.71c.22,2.31.39,4,3.85,7.24V113.16A8.5,8.5,0,0,0,193,115Z" fill="#fff"/><path d="M205,146.74v14.15a8.31,8.31,0,0,0,2.51-2,6.27,6.27,0,0,0,1.55-4.7C208.82,151.84,208.65,150.13,205,146.74Z" fill="#fff"/></g></g></svg>